<svg xmlns="http://www.w3.org/2000/svg" xmlns:xlink="http://www.w3.org/1999/xlink" version="1.1" x="0px" y="0px" viewBox="0 0 100 125" enable-background="new 0 0 100 100" xml:space="preserve"><path d="M69,36.945h-8.311v-1.778c0-1.104-0.896-2-2-2s-2,0.896-2,2v1.778h-15v-1.778c0-1.104-0.896-2-2-2  s-2,0.896-2,2v1.778H29.5c-0.829,0-1.5,0.671-1.5,1.5s0.671,1.5,1.5,1.5h8.189v14.718l2.613-4.106  c0.337-0.529,0.829-0.908,1.387-1.14v-9.472h15v9.285c0.756,0.136,1.445,0.543,1.902,1.173l2.098,2.885V39.945H69  c0.828,0,1.5-0.671,1.5-1.5S69.828,36.945,69,36.945z"/><path d="M40.834,70.5c0,1.104,0.896,2,2,2s2-0.896,2-2v-4.333h-4V70.5z"/><path d="M55.834,70.5c0,1.104,0.896,2,2,2s2-0.896,2-2v-4.333h-4V70.5z"/><path d="M10.345,36.945h-0.5c-0.829,0-1.5,0.671-1.5,1.5s0.671,1.5,1.5,1.5h0.5c0.829,0,1.5-0.671,1.5-1.5  S11.173,36.945,10.345,36.945z"/><path d="M25.034,27.167c-1.104,0-2,0.896-2,2v19.459c0,1.104,0.896,2,2,2s2-0.896,2-2V29.167  C27.034,28.063,26.138,27.167,25.034,27.167z"/><path d="M20.034,27.167c-1.104,0-2,0.896-2,2v19.459c0,1.104,0.896,2,2,2s2-0.896,2-2V29.167  C22.034,28.063,21.138,27.167,20.034,27.167z"/><path d="M15.034,30.167c-1.104,0-2,0.896-2,2v13.459c0,1.104,0.896,2,2,2s2-0.896,2-2V32.167  C17.034,31.063,16.138,30.167,15.034,30.167z"/><path d="M88.752,36.882h-0.5c-0.828,0-1.5,0.671-1.5,1.5s0.672,1.5,1.5,1.5h0.5c0.828,0,1.5-0.671,1.5-1.5  S89.58,36.882,88.752,36.882z"/><path d="M73.563,27.104c-1.104,0-2,0.896-2,2v19.459c0,1.104,0.896,2,2,2s2-0.896,2-2V29.104  C75.563,28,74.667,27.104,73.563,27.104z"/><path d="M78.563,27.104c-1.104,0-2,0.896-2,2v19.459c0,1.104,0.896,2,2,2s2-0.896,2-2V29.104  C80.563,28,79.667,27.104,78.563,27.104z"/><path d="M83.563,30.104c-1.104,0-2,0.896-2,2v13.459c0,1.104,0.896,2,2,2s2-0.896,2-2V32.104  C85.563,31,84.667,30.104,83.563,30.104z"/><path d="M60.689,54.986l-2.906-3.996c-0.271-0.372-0.66-0.629-1.094-0.748c-0.169-0.045-0.344-0.075-0.523-0.075H42.833  c-0.419,0-0.812,0.144-1.145,0.378c-0.21,0.148-0.401,0.325-0.543,0.549l-3.457,5.432l-3.543,5.567  c-0.392,0.616-0.417,1.396-0.066,2.037c0.352,0.64,1.023,1.037,1.753,1.037h0v1V76.5c0,1.104,0.896,2,2,2s2-0.896,2-2V66.167v-1h1h4  h11h4h1v1V76.5c0,1.104,0.896,2,2,2s2-0.896,2-2V66.086v-1.048c0.473-0.17,0.879-0.501,1.114-0.964  c0.342-0.67,0.277-1.476-0.165-2.084L60.689,54.986z"/></svg>