<svg xmlns="http://www.w3.org/2000/svg" fill="#000000" viewBox="0 0 50 62.5" x="0px" y="0px"><path d="M 24.5 3 A 4.5 4.5 0 0 0 20 7.5 A 4.5 4.5 0 0 0 24.5 12 A 4.5 4.5 0 0 0 29 7.5 A 4.5 4.5 0 0 0 24.5 3 z M 20.5 14 C 17.462 14 15 16.462 15 19.5 L 15 32 C 15 33.105 15.895 34 17 34 C 18.105 34 19 33.105 19 32 L 19 22 C 19 21.448 19.448 21 20 21 C 20.552 21 21 21.448 21 22 L 21 30 L 28 30 L 28 22 C 28 21.448 28.448 21 29 21 C 29.552 21 30 21.448 30 22 L 30 32 C 30 33.105 30.895 34 32 34 C 33.105 34 34 33.105 34 32 L 34 19.5 C 34 16.462 31.538 14 28.5 14 L 20.5 14 z M 5.984375 22.986328 A 1.0001 1.0001 0 0 0 5 24 L 5 30 L 4 30 A 1.0001 1.0001 0 1 0 4 32 L 5 32 L 5 38 A 1.0001 1.0001 0 1 0 7 38 L 7 31.167969 A 1.0001 1.0001 0 0 0 7 30.841797 L 7 24 A 1.0001 1.0001 0 0 0 5.984375 22.986328 z M 9.984375 22.986328 A 1.0001 1.0001 0 0 0 9 24 L 9 38 A 1.0001 1.0001 0 1 0 11 38 L 11 32 L 13 32 L 13 30 L 11 30 L 11 24 A 1.0001 1.0001 0 0 0 9.984375 22.986328 z M 38.984375 22.986328 A 1.0001 1.0001 0 0 0 38 24 L 38 30 L 36 30 L 36 32 L 38 32 L 38 38 A 1.0001 1.0001 0 1 0 40 38 L 40 24 A 1.0001 1.0001 0 0 0 38.984375 22.986328 z M 42.984375 22.986328 A 1.0001 1.0001 0 0 0 42 24 L 42 30.832031 A 1.0001 1.0001 0 0 0 42 31.158203 L 42 38 A 1.0001 1.0001 0 1 0 44 38 L 44 32 L 45 32 A 1.0001 1.0001 0 1 0 45 30 L 44 30 L 44 24 A 1.0001 1.0001 0 0 0 42.984375 22.986328 z M 21 32 C 21 33.938 19.61325 35.556875 17.78125 35.921875 L 16.056641 43.976562 C 16.018641 44.152563 16 44.327 16 44.5 C 15.999 45.654 16.802563 46.692359 17.976562 46.943359 C 18.153562 46.981359 18.329906 47 18.503906 47 C 19.656906 47 20.693312 46.196438 20.945312 45.023438 L 23.306641 34 L 25.693359 34 L 28.056641 45.023438 C 28.307641 46.196438 29.343094 47 30.496094 47 C 30.669094 47 30.847437 46.981359 31.023438 46.943359 C 32.197438 46.692359 32.999047 45.654 32.998047 44.5 C 32.999047 44.327 32.981359 44.152562 32.943359 43.976562 L 31.21875 35.921875 C 29.38675 35.556875 28 33.938 28 32 L 21 32 z"/></svg>