<svg xmlns="http://www.w3.org/2000/svg" xmlns:xlink="http://www.w3.org/1999/xlink" version="1.1" x="0px" y="0px" viewBox="0 0 100 125" enable-background="new 0 0 100 100" xml:space="preserve"><g><circle fill="#000000" cx="56.73" cy="39.009" r="8.106"/><g><path fill="#000000" d="M48.65,41.674c0,0.01,0.002,0.017,0.003,0.027c0.024,0.011,0.047,0.02,0.071,0.032L48.65,41.674z"/><path fill="#000000" d="M41.801,60.38c-0.274,0.033-0.524-0.18-0.55-0.458c-0.025-0.278,0.18-0.524,0.458-0.55    c16.794-1.534,28.105,2.992,33.221,5.721c-2.362-4.41-20.754-8.172-33.617-6.66c0.061-0.455,3.675-7.851,5.212-6.618    c1.26,1.011,12.096,5.777,19.679,7.668c2.148,0.372,4.179,0.163,4.493-2.404c0.284-2.321-1.698-2.954-3.53-3.497    c-2.699-0.8-19.213-4.297-19.858-12.466c-5.48-2.57-7.703-1.022-11.466,2.827c-3.936,4.026-7.19,8.335-9.493,13.442    c-1.403,3.111-2.155,6.231,0.475,8.89c2.477,2.505,5.548,4.746,9.879,2.594c9.227-2.972,22.657-1.802,31.295,1.606    c2.786,1.099,6.261-1.118,6.933-4.279C75.416,65.093,58.872,58.819,41.801,60.38z"/></g></g></svg>